<?xml version="1.0" standalone="no"?>
<!DOCTYPE svg PUBLIC "-//W3C//DTD SVG 20010904//EN"
 "http://www.w3.org/TR/2001/REC-SVG-20010904/DTD/svg10.dtd">
<svg version="1.0" xmlns="http://www.w3.org/2000/svg"
 width="700.000000pt" height="700.000000pt" viewBox="0 0 700.000000 700.000000"
 preserveAspectRatio="xMidYMid meet">
<metadata>
Created by potrace 1.11, written by Peter Selinger 2001-2013
</metadata>
<g transform="translate(0.000000,700.000000) scale(0.100000,-0.100000)"
fill="#000000" stroke="none">
<path d="M3117 6934 c-1 -1 -32 -4 -70 -8 -241 -23 -544 -210 -749 -464 -257
-319 -433 -793 -513 -1382 -3 -25 -8 -56 -10 -70 -2 -14 -6 -43 -9 -65 -3 -22
-8 -69 -11 -105 -3 -36 -7 -81 -10 -100 -4 -38 -12 -139 -20 -270 -3 -47 -8
-110 -10 -140 -8 -97 -18 -322 -19 -426 -2 -115 -2 -116 -86 -177 -57 -42
-142 -126 -188 -187 -15 -19 -33 -42 -41 -50 -27 -28 -124 -184 -163 -264 -89
-177 -122 -271 -243 -686 -69 -237 -86 -288 -125 -385 -47 -117 -58 -150 -76
-216 -46 -175 -57 -444 -24 -609 53 -272 203 -505 461 -713 304 -246 840 -446
1369 -511 19 -3 49 -7 65 -10 17 -2 64 -8 105 -11 41 -4 95 -8 120 -10 118
-11 471 -5 585 9 260 32 229 27 390 61 128 26 401 109 420 126 5 5 16 9 24 9
22 0 253 115 342 170 261 162 445 350 534 545 32 70 73 207 81 268 3 23 8 49
11 57 12 31 10 328 -3 415 -23 163 -32 199 -123 500 -80 265 -95 318 -127 430
-19 66 -36 129 -38 140 -3 11 -14 63 -25 116 -29 133 -67 265 -96 327 -14 29
-25 55 -25 57 0 11 -100 173 -114 184 -8 7 -13 18 -11 24 2 7 6 28 9 47 12 83
68 177 183 307 42 48 80 90 84 93 8 7 96 106 159 180 30 36 71 83 91 105 57
64 528 622 599 710 296 363 446 657 452 886 2 90 -5 135 -34 202 -32 77 -89
149 -151 190 -53 36 -169 80 -237 92 -19 3 -48 8 -65 11 -53 9 -205 11 -248 3
-23 -4 -55 -9 -72 -12 -54 -8 -183 -47 -254 -77 -377 -155 -801 -548 -1108
-1025 -107 -166 -166 -272 -263 -470 -82 -167 -116 -255 -200 -520 -36 -114
-89 -222 -126 -256 -22 -21 -35 -23 -102 -23 -151 1 -347 14 -441 29 -42 7
-46 20 -47 164 -2 142 18 305 51 431 20 79 95 301 105 315 4 6 11 21 15 35 8
26 128 302 185 425 182 394 279 676 305 884 4 30 9 63 11 75 6 32 6 216 -1
261 -33 217 -182 343 -423 358 -29 2 -54 2 -55 1z"/>
</g>
</svg>
